<?xml version="1.0" encoding="utf-8"?>
<!-- Generator: Adobe Illustrator 16.0.0, SVG Export Plug-In . SVG Version: 6.00 Build 0)  -->
<!DOCTYPE svg PUBLIC "-//W3C//DTD SVG 1.1//EN" "http://www.w3.org/Graphics/SVG/1.1/DTD/svg11.dtd">
<svg version="1.1" id="Layer_2" xmlns="http://www.w3.org/2000/svg" xmlns:xlink="http://www.w3.org/1999/xlink" x="0px" y="0px"
	 width="260px" height="80px" viewBox="0 0 260 80" enable-background="new 0 0 260 80" xml:space="preserve">
<circle fill="#12A9E1" cx="41.05" cy="38.599" r="35.778"/>
<g>
	<g>
		<g>
			<path fill="#12A9E1" d="M85.248,34.446c0.585-0.539,1.195-0.939,1.805-1.219c0.632-0.258,1.267-0.376,1.95-0.376
				c1.876,0,3.143,0.751,3.895,2.3c1.406-1.619,2.651-2.3,4.271-2.3c2.461,0,4.222,1.62,4.222,4.084v6.946h-3.401v-6.336
				c0-1.549-0.752-2.417-1.994-2.417c-0.986,0-1.901,0.633-2.675,1.83v6.924h-3.403v-6.407c0-1.76-1.058-2.346-2.066-2.346
				c-0.891,0-1.781,0.517-2.603,1.502v7.251h-3.405V33.062h3.405V34.446z"/>
			<path fill="#12A9E1" d="M114.225,42.659c-1.949,1.433-3.988,1.433-4.836,1.433c-3.799,0-6.264-2.207-6.264-5.585
				c0-3.309,2.37-5.655,5.704-5.655c3.145,0,5.748,2.229,5.585,6.171h-7.769c0.118,1.925,1.433,3.051,3.567,3.051
				c1.359,0,2.417-0.4,4.012-1.548V42.659z M111.41,37.24c-0.141-1.48-1.035-2.371-2.348-2.371c-1.336,0-2.205,0.868-2.346,2.371
				H111.41z"/>
			<path fill="#12A9E1" d="M126.917,43.88h-3.401V43.01c-0.962,0.775-1.854,1.082-3.004,1.082c-2.909,0-5.068-2.395-5.068-5.633
				c0-3.308,2.159-5.608,5.255-5.608c0.986,0,1.9,0.234,2.817,0.681v-5.655h3.401V43.88z M123.517,35.76
				c-0.494-0.352-1.291-0.633-1.902-0.633c-1.712,0-2.722,1.245-2.722,3.403c0,1.97,1.01,3.286,2.605,3.286
				c0.728,0,1.313-0.259,2.019-0.893V35.76z"/>
			<path fill="#12A9E1" d="M132.763,29.542c0,1.031-0.845,1.877-1.877,1.877c-1.035,0-1.876-0.846-1.876-1.877
				c0-1.033,0.841-1.877,1.876-1.877C131.918,27.665,132.763,28.509,132.763,29.542z M132.597,43.88h-3.401V33.062h3.401V43.88z"/>
			<path fill="#12A9E1" d="M144.354,43.364c-1.361,0.491-2.511,0.728-3.661,0.728c-3.803,0-6.265-2.207-6.265-5.585
				c0-3.309,2.558-5.655,6.124-5.655c1.103,0,2.511,0.281,3.638,0.704v2.534c-0.892-0.47-1.925-0.728-2.77-0.728
				c-2.04,0-3.355,1.22-3.355,3.123c0,1.922,1.29,3.189,3.24,3.189c0.82,0,1.547-0.188,3.049-0.75V43.364z"/>
			<path fill="#12A9E1" d="M157.445,43.106c-0.936,0.563-2.274,0.985-3.189,0.985c-1.128,0-1.666-0.354-1.902-1.222
				c-1.313,0.893-2.393,1.222-3.564,1.222c-1.737,0-3.026-1.291-3.026-2.652c0-2.582,1.897-3.098,6.426-4.504
				c0.074-1.011-0.398-1.808-1.874-1.808c-1.361,0-2.91,0.704-3.991,1.808v-2.77c1.408-0.868,2.981-1.314,4.693-1.314
				c2.722,0,4.578,0.914,4.578,3.285v4.927c0,0.542,0.21,0.753,0.562,0.753c0.235,0,0.494-0.048,1.289-0.61V43.106z M152.188,38.646
				c-2.016,0.728-2.979,1.197-2.979,2.276c0,0.634,0.494,1.15,1.105,1.15c0.634,0,1.313-0.305,1.874-0.821V38.646z"/>
			<path fill="#12A9E1" d="M162.093,43.88h-3.4V27.876h3.4V43.88z"/>
			<path fill="#12A9E1" d="M172.65,36.16h0.05c1.007-2.253,2.133-3.309,3.446-3.309c0.684,0,1.268,0.258,2.253,0.986l-0.938,3.002
				c-0.894-0.563-1.478-0.797-2.02-0.797c-1.243,0-2.04,1.173-2.792,3.167v4.671h-3.401V33.062h3.401V36.16z"/>
			<path fill="#12A9E1" d="M189.175,42.659c-1.947,1.433-3.99,1.433-4.833,1.433c-3.801,0-6.266-2.207-6.266-5.585
				c0-3.309,2.37-5.655,5.702-5.655c3.143,0,5.749,2.229,5.584,6.171h-7.767c0.118,1.925,1.433,3.051,3.566,3.051
				c1.362,0,2.417-0.4,4.013-1.548V42.659z M186.357,37.24c-0.141-1.48-1.029-2.371-2.345-2.371c-1.339,0-2.205,0.868-2.346,2.371
				H186.357z"/>
			<path fill="#12A9E1" d="M198.42,36.064c-1.478-0.914-2.935-1.196-3.614-1.196c-0.445,0-1.219,0.094-1.219,0.845
				c0,1.197,5.373,1.243,5.373,4.857c0,2.252-1.596,3.521-4.412,3.521c-1.735,0-3.402-0.54-3.873-0.799v-2.393
				c1.104,0.469,2.208,0.916,3.496,0.916c1.011,0,1.646-0.305,1.646-0.799c0-1.571-5.374-1.291-5.374-4.834
				c0-1.995,1.807-3.332,4.48-3.332c1.361,0,2.37,0.234,3.497,0.798V36.064z"/>
			<path fill="#12A9E1" d="M210.974,42.659c-1.948,1.433-3.988,1.433-4.834,1.433c-3.802,0-6.266-2.207-6.266-5.585
				c0-3.309,2.371-5.655,5.702-5.655c3.145,0,5.749,2.229,5.586,6.171h-7.769c0.118,1.925,1.433,3.051,3.568,3.051
				c1.36,0,2.417-0.4,4.012-1.548V42.659z M208.158,37.24c-0.142-1.48-1.032-2.371-2.348-2.371c-1.337,0-2.205,0.868-2.346,2.371
				H208.158z"/>
			<path fill="#12A9E1" d="M223.832,43.106c-0.938,0.563-2.277,0.985-3.192,0.985c-1.127,0-1.666-0.354-1.899-1.222
				c-1.314,0.893-2.393,1.222-3.567,1.222c-1.736,0-3.026-1.291-3.026-2.652c0-2.582,1.901-3.098,6.43-4.504
				c0.07-1.011-0.401-1.808-1.878-1.808c-1.36,0-2.909,0.704-3.989,1.808v-2.77c1.406-0.868,2.98-1.314,4.694-1.314
				c2.721,0,4.576,0.914,4.576,3.285v4.927c0,0.542,0.21,0.753,0.562,0.753c0.236,0,0.494-0.048,1.291-0.61V43.106z M218.576,38.646
				c-2.019,0.728-2.98,1.197-2.98,2.276c0,0.634,0.492,1.15,1.103,1.15c0.634,0,1.314-0.305,1.878-0.821V38.646z"/>
			<path fill="#12A9E1" d="M228.148,36.16h0.047c1.01-2.253,2.135-3.309,3.448-3.309c0.682,0,1.268,0.258,2.254,0.986l-0.938,3.002
				c-0.893-0.563-1.478-0.797-2.017-0.797c-1.246,0-2.042,1.173-2.794,3.167v4.671h-3.401V33.062h3.401V36.16z"/>
			<path fill="#12A9E1" d="M243.449,43.364c-1.362,0.491-2.511,0.728-3.661,0.728c-3.802,0-6.265-2.207-6.265-5.585
				c0-3.309,2.558-5.655,6.125-5.655c1.102,0,2.511,0.281,3.636,0.704v2.534c-0.89-0.47-1.922-0.728-2.769-0.728
				c-2.039,0-3.356,1.22-3.356,3.123c0,1.922,1.291,3.189,3.239,3.189c0.82,0,1.549-0.188,3.051-0.75V43.364z"/>
			<path fill="#12A9E1" d="M248.589,34.657h0.045c0.986-1.244,2.091-1.807,3.425-1.807c1.974,0,3.968,1.197,3.968,4.131v6.899
				h-3.402v-6.172c0-1.62-0.702-2.37-1.76-2.37c-0.799,0-1.478,0.492-2.275,1.643v6.899h-3.403V27.876h3.403V34.657z"/>
		</g>
		<g>
			<path fill="#FFFFFF" d="M22.253,43.064c-0.937,0.562-2.272,0.982-3.185,0.982c-1.125,0-1.663-0.35-1.897-1.216
				c-1.311,0.888-2.389,1.216-3.56,1.216c-1.733,0-3.021-1.287-3.021-2.646c0-2.575,1.897-3.09,6.417-4.495
				c0.071-1.009-0.398-1.806-1.872-1.806c-1.358,0-2.906,0.703-3.982,1.806v-2.766c1.405-0.866,2.975-1.311,4.683-1.311
				c2.717,0,4.567,0.913,4.567,3.28v4.915c0,0.54,0.21,0.75,0.562,0.75c0.234,0,0.492-0.046,1.288-0.608V43.064z M17.007,38.614
				c-2.013,0.726-2.975,1.196-2.975,2.271c0,0.634,0.492,1.149,1.103,1.149c0.632,0,1.311-0.305,1.872-0.82V38.614z"/>
			<path fill="#FFFFFF" d="M32.393,43.32c-1.357,0.492-2.506,0.727-3.653,0.727c-3.794,0-6.254-2.2-6.254-5.573
				c0-3.302,2.554-5.644,6.114-5.644c1.099,0,2.505,0.28,3.628,0.703v2.53c-0.889-0.468-1.919-0.726-2.763-0.726
				c-2.037,0-3.348,1.216-3.348,3.115c0,1.919,1.288,3.185,3.231,3.185c0.82,0,1.545-0.188,3.044-0.751V43.32z"/>
			<path fill="#FFFFFF" d="M41.714,35.359H37.78v4.451c0,1.053,0.608,1.731,1.662,1.731c0.703,0,1.358-0.164,2.272-0.632v2.458
				c-1.195,0.492-2.083,0.68-3.139,0.68c-2.248,0-4.192-1.029-4.192-4.051v-4.637h-1.545v-0.655l4.52-5.058h0.422v3.395h3.934
				V35.359z"/>
			<path fill="#FFFFFF" d="M46.632,29.528c0,1.031-0.844,1.873-1.875,1.873c-1.029,0-1.873-0.842-1.873-1.873
				s0.843-1.873,1.873-1.873C45.789,27.655,46.632,28.498,46.632,29.528z M46.469,43.837h-3.396V33.041h3.396V43.837z"/>
			<path fill="#FFFFFF" d="M53.751,44.047c-3.536,0-6.112-2.224-6.112-5.62c0-3.676,2.927-5.597,6.112-5.597
				c2.646,0,6.066,1.476,6.066,5.621C59.817,42.735,56.141,44.047,53.751,44.047z M53.751,34.844c-1.476,0-2.481,1.147-2.481,3.583
				c0,2.787,1.194,3.606,2.481,3.606c1.592,0,2.436-1.311,2.436-3.676C56.187,36.25,55.462,34.844,53.751,34.844z"/>
			<path fill="#FFFFFF" d="M64.313,34.586c1.079-1.24,2.132-1.756,3.513-1.756c1.687,0,3.935,0.959,3.935,4.145v6.862h-3.395v-6.581
				c0-1.521-0.727-2.155-1.688-2.155c-0.843,0-1.475,0.447-2.366,1.781v6.955h-3.395V33.041h3.395V34.586z"/>
		</g>
		<g>
			<path fill="#EF5091" d="M87.083,56.759c-0.359-0.145-0.575-0.192-0.958-0.192c-1.719,0-2.271,1.003-2.271,2.654v1.028h1.938
				v1.914h-1.938v8.824h-2.126v-8.824h-1.508v-1.914h1.508V59.46c0-2.105,0.501-3.109,1.362-3.97c0.909-0.91,2.128-1.34,3.994-0.814
				V56.759z"/>
			<path fill="#EF5091" d="M97.97,65.512c0,3.395-2.367,5.69-5.81,5.69c-3.302,0-5.668-2.391-5.668-5.69
				c0-3.086,2.464-5.479,5.668-5.479C95.53,60.033,97.97,62.329,97.97,65.512z M88.667,65.512c0,2.271,1.413,3.777,3.468,3.777
				c2.247,0,3.658-1.435,3.658-3.756c0-2.079-1.531-3.586-3.658-3.586C90.126,61.947,88.667,63.454,88.667,65.512z"/>
			<path fill="#EF5091" d="M102.488,60.249v2.464h0.049c1.074-1.89,2.105-2.68,3.11-2.68c0.858,0,1.672,0.407,2.558,1.246
				l-1.125,1.84c-0.645-0.621-1.482-1.051-1.983-1.051c-1.461,0-2.608,1.456-2.608,3.3v5.619h-2.128V60.249H102.488z"/>
			<path fill="#EF5091" d="M122.312,63.049c-1.218-0.815-2.032-1.054-2.965-1.054c-1.936,0-3.275,1.459-3.275,3.635
				c0,2.225,1.435,3.563,3.635,3.563c0.908,0,1.769-0.239,2.845-0.717v2.104c-0.716,0.335-2.078,0.621-3.205,0.621
				c-3.204,0-5.451-2.225-5.451-5.38c0-3.539,2.056-5.789,5.307-5.789c1.246,0,2.082,0.286,3.109,0.743V63.049z"/>
			<path fill="#EF5091" d="M126.857,61.66h0.047c0.813-1.027,2.009-1.627,3.206-1.627c2.103,0,3.659,1.436,3.659,4.377v6.577h-2.131
				V64.34c0-1.579-0.812-2.606-2.104-2.606c-0.932,0-1.673,0.43-2.677,1.555v7.699h-2.128V54.677h2.128V61.66z"/>
			<path fill="#EF5091" d="M137.739,58.265c-0.695,0-1.269-0.575-1.269-1.268c0-0.692,0.573-1.267,1.269-1.267
				c0.692,0,1.266,0.575,1.266,1.267C139.005,57.69,138.432,58.265,137.739,58.265z M138.79,70.987h-2.129V60.249h2.129V70.987z"/>
			<path fill="#EF5091" d="M143.908,70.987h-2.129V54.677h2.129V70.987z"/>
			<path fill="#EF5091" d="M156.127,70.987h-4.519c-3.205,0-5.214-2.176-5.214-5.619c0-3.109,2.223-5.335,5.357-5.335
				c0.715,0,1.386,0.121,2.245,0.432v-5.788h2.13V70.987z M153.997,62.354c-0.715-0.285-1.265-0.406-1.981-0.406
				c-2.059,0-3.445,1.482-3.445,3.73c0,2.01,0.813,3.516,3.277,3.516h2.149V62.354z"/>
			<path fill="#EF5091" d="M161.195,60.249v2.464h0.051c1.077-1.89,2.104-2.68,3.107-2.68c0.86,0,1.675,0.407,2.561,1.246
				l-1.125,1.84c-0.646-0.621-1.484-1.051-1.984-1.051c-1.459,0-2.609,1.456-2.609,3.3v5.619h-2.126V60.249H161.195z"/>
			<path fill="#EF5091" d="M176.77,69.936c-1.291,0.859-2.463,1.267-4.281,1.267c-3.345,0-5.213-2.75-5.213-5.715
				c0-3.254,2.058-5.454,5.022-5.454c2.846,0,4.662,1.938,4.662,5.909h-7.556c0.335,2.126,1.554,3.229,3.612,3.229
				c1.29,0,2.511-0.479,3.753-1.293V69.936z M174.856,64.529c-0.072-1.625-1.003-2.654-2.51-2.654c-1.628,0-2.607,0.958-2.894,2.654
				H174.856z"/>
			<path fill="#EF5091" d="M181.218,61.66h0.049c0.813-1.027,2.008-1.627,3.204-1.627c2.031,0,3.659,1.388,3.659,4.33v6.624h-2.129
				V64.34c0-1.579-0.813-2.606-2.104-2.606c-0.934,0-1.675,0.43-2.679,1.555v7.699h-2.128V60.249h2.128V61.66z"/>
		</g>
	</g>
</g>
</svg>
